<svg width="1077" height="1114" viewBox="0 0 1077 1114" fill="none" xmlns="http://www.w3.org/2000/svg">
<path d="M1077 345.792C1077 609.359 861.423 823.023 595.498 823.023C329.573 823.023 113.998 785.653 113.998 522.085C113.998 258.518 721.258 502.657 598.277 88.9275C554.505 -125.387 1077 82.2248 1077 345.792Z" fill="#97CD92"/>
<g filter="url(#filter0_f_826_3868)">
<ellipse cx="731.502" cy="456.629" rx="38.5" ry="38.1764" fill="url(#paint0_linear_826_3868)"/>
</g>
<g filter="url(#filter1_f_826_3868)">
<ellipse rx="20.8677" ry="20.956" transform="matrix(-0.503169 -0.864188 0.867843 -0.496838 686.003 1082.82)" fill="url(#paint1_linear_826_3868)"/>
</g>
<g filter="url(#filter2_f_826_3868)">
<ellipse rx="20.8677" ry="20.956" transform="matrix(-0.503169 -0.864188 0.867843 -0.496838 31.6865 314.445)" fill="url(#paint2_linear_826_3868)"/>
</g>
<defs>
<filter id="filter0_f_826_3868" x="685.002" y="410.453" width="93" height="92.3525" filterUnits="userSpaceOnUse" color-interpolation-filters="sRGB">
<feFlood flood-opacity="0" result="BackgroundImageFix"/>
<feBlend mode="normal" in="SourceGraphic" in2="BackgroundImageFix" result="shape"/>
<feGaussianBlur stdDeviation="4" result="effect1_foregroundBlur_826_3868"/>
</filter>
<filter id="filter1_f_826_3868" x="655" y="1051.99" width="62.0059" height="61.6538" filterUnits="userSpaceOnUse" color-interpolation-filters="sRGB">
<feFlood flood-opacity="0" result="BackgroundImageFix"/>
<feBlend mode="normal" in="SourceGraphic" in2="BackgroundImageFix" result="shape"/>
<feGaussianBlur stdDeviation="5" result="effect1_foregroundBlur_826_3868"/>
</filter>
<filter id="filter2_f_826_3868" x="0.683594" y="283.618" width="62.0059" height="61.6538" filterUnits="userSpaceOnUse" color-interpolation-filters="sRGB">
<feFlood flood-opacity="0" result="BackgroundImageFix"/>
<feBlend mode="normal" in="SourceGraphic" in2="BackgroundImageFix" result="shape"/>
<feGaussianBlur stdDeviation="5" result="effect1_foregroundBlur_826_3868"/>
</filter>
<linearGradient id="paint0_linear_826_3868" x1="731.502" y1="418.453" x2="731.502" y2="494.805" gradientUnits="userSpaceOnUse">
<stop stop-color="#4F9B47"/>
<stop offset="1" stop-color="#97CD92"/>
</linearGradient>
<linearGradient id="paint1_linear_826_3868" x1="20.8677" y1="0" x2="20.8677" y2="41.912" gradientUnits="userSpaceOnUse">
<stop stop-color="#4F9B47"/>
<stop offset="1" stop-color="#97CD92"/>
</linearGradient>
<linearGradient id="paint2_linear_826_3868" x1="20.8677" y1="0" x2="20.8677" y2="41.912" gradientUnits="userSpaceOnUse">
<stop stop-color="#4F9B47"/>
<stop offset="1" stop-color="#97CD92"/>
</linearGradient>
</defs>
</svg>
