<svg width="886" height="1023" viewBox="0 0 886 1023" fill="none" xmlns="http://www.w3.org/2000/svg">
<path d="M1077 254.792C1077 518.359 861.423 732.023 595.498 732.023C329.573 732.023 113.998 694.653 113.998 431.085C113.998 167.518 721.258 411.657 598.277 -2.07253C554.505 -216.387 1077 -8.77522 1077 254.792Z" fill="#97CD92"/>
<g filter="url(#filter0_f_806_3866)">
<ellipse cx="731.502" cy="365.629" rx="38.5" ry="38.1764" fill="url(#paint0_linear_806_3866)"/>
</g>
<g filter="url(#filter1_f_806_3866)">
<ellipse rx="20.8677" ry="20.956" transform="matrix(-0.503169 -0.864188 0.867843 -0.496838 686.003 991.82)" fill="url(#paint1_linear_806_3866)"/>
</g>
<g filter="url(#filter2_f_806_3866)">
<ellipse rx="20.8677" ry="20.956" transform="matrix(-0.503169 -0.864188 0.867843 -0.496838 31.6865 223.445)" fill="url(#paint2_linear_806_3866)"/>
</g>
<defs>
<filter id="filter0_f_806_3866" x="685.002" y="319.453" width="93" height="92.3525" filterUnits="userSpaceOnUse" color-interpolation-filters="sRGB">
<feFlood flood-opacity="0" result="BackgroundImageFix"/>
<feBlend mode="normal" in="SourceGraphic" in2="BackgroundImageFix" result="shape"/>
<feGaussianBlur stdDeviation="4" result="effect1_foregroundBlur_806_3866"/>
</filter>
<filter id="filter1_f_806_3866" x="655" y="960.993" width="62.0059" height="61.6538" filterUnits="userSpaceOnUse" color-interpolation-filters="sRGB">
<feFlood flood-opacity="0" result="BackgroundImageFix"/>
<feBlend mode="normal" in="SourceGraphic" in2="BackgroundImageFix" result="shape"/>
<feGaussianBlur stdDeviation="5" result="effect1_foregroundBlur_806_3866"/>
</filter>
<filter id="filter2_f_806_3866" x="0.683594" y="192.618" width="62.0059" height="61.6538" filterUnits="userSpaceOnUse" color-interpolation-filters="sRGB">
<feFlood flood-opacity="0" result="BackgroundImageFix"/>
<feBlend mode="normal" in="SourceGraphic" in2="BackgroundImageFix" result="shape"/>
<feGaussianBlur stdDeviation="5" result="effect1_foregroundBlur_806_3866"/>
</filter>
<linearGradient id="paint0_linear_806_3866" x1="731.502" y1="327.453" x2="731.502" y2="403.805" gradientUnits="userSpaceOnUse">
<stop stop-color="#4F9B47"/>
<stop offset="1" stop-color="#97CD92"/>
</linearGradient>
<linearGradient id="paint1_linear_806_3866" x1="20.8677" y1="0" x2="20.8677" y2="41.912" gradientUnits="userSpaceOnUse">
<stop stop-color="#4F9B47"/>
<stop offset="1" stop-color="#97CD92"/>
</linearGradient>
<linearGradient id="paint2_linear_806_3866" x1="20.8677" y1="0" x2="20.8677" y2="41.912" gradientUnits="userSpaceOnUse">
<stop stop-color="#4F9B47"/>
<stop offset="1" stop-color="#97CD92"/>
</linearGradient>
</defs>
</svg>
