<svg width="150" height="52" viewBox="0 0 150 52" fill="none" xmlns="http://www.w3.org/2000/svg">
<path d="M33.0896 35.6894C31.85 35.7909 30.7758 36.1159 29.8048 36.9284C29.5775 36.2581 29.6602 35.6488 29.8461 35.0597C30.1147 34.1456 30.7551 33.516 31.5815 33.0691C32.1186 32.7847 32.6971 32.5613 33.2962 32.3582C33.6267 32.2566 33.7507 32.0941 33.8127 31.7691C34.3498 29.3519 34.8663 26.9145 35.4861 24.5176C35.9406 22.7911 36.7463 21.1864 38.0891 19.7848C37.3661 19.6427 36.7463 19.5411 36.1265 19.4395C33.6474 19.013 31.1683 18.5864 28.6479 18.688C22.2435 18.952 17.6365 23.7051 17.7811 29.9207C17.8018 31.1191 18.029 32.2769 18.6488 33.3331C19.2686 34.3894 20.1363 35.0597 21.4378 35.0191C22.698 34.9988 23.4624 34.2878 24.0202 33.2722C24.8466 31.7082 25.0738 30.0019 25.0945 28.2957C25.1151 26.8535 24.9499 25.4317 24.8672 23.9895C24.8672 23.8067 24.8672 23.6036 24.9499 23.4614C25.7762 22.2223 27.4703 21.5317 28.9784 21.8161C30.3213 22.0801 31.2096 23.0958 31.3955 24.5785C31.6434 26.4676 31.1476 28.2144 30.3626 29.8801C29.0817 32.6222 27.243 34.8972 24.4127 36.1972C21.4998 37.5378 18.6075 37.4972 16.0251 35.405C14.3724 34.0644 13.484 32.2363 13.1741 30.2051C11.9965 22.3645 16.9134 16.1693 24.2475 14.9708C26.5406 14.6052 28.8545 14.6865 31.1476 14.9302C35.4447 15.3974 39.7212 15.9255 44.0183 16.3724C48.0882 16.7989 52.0754 16.4333 55.856 14.788C58.6037 13.5896 61.0002 11.9037 62.7562 9.4662C63.376 8.61308 63.8718 7.67872 64.0164 6.60216C64.1817 5.22093 63.4793 4.38812 62.0331 4.36781C60.6696 4.3475 59.5334 4.87562 58.5211 5.74905C57.1576 6.94747 56.2279 8.45058 55.6288 10.1365C55.4842 10.5631 55.2363 10.7459 54.8231 10.7662C54.5132 10.7865 54.2033 10.8474 53.8934 10.8677C51.8275 10.9084 51.0011 9.68963 51.1871 7.84122C51.3317 6.39904 52.0341 5.22093 53.1703 4.3475C56.2279 1.99127 59.678 1.3819 63.3347 2.64127C66.3509 3.69751 67.4872 6.31779 67.136 9.22245C66.8054 12.1068 65.194 14.2802 63.0041 16.0677C59.6987 18.7692 55.8354 20.2317 51.6209 20.902C48.7493 21.3692 45.8983 21.1051 43.0473 20.6583C41.9524 20.4958 41.8904 20.4552 41.6425 21.552C40.9814 24.5379 40.3616 27.5441 39.7419 30.5504C39.7212 30.6316 39.7419 30.7129 39.7419 30.855C41.2293 30.2863 42.4482 29.4129 43.6878 28.3973C44.0596 29.3519 44.101 30.266 43.8944 31.1394C43.3985 33.3331 41.8491 34.491 39.7212 34.9378C39.0601 35.08 38.8122 35.3238 38.6882 35.9737C38.1304 38.8581 37.5107 41.7221 36.519 44.4846C35.9612 46.0486 35.2382 47.5111 33.916 48.6283C32.9243 49.4611 31.8294 50.0908 30.4659 49.9892C30.0114 49.9486 29.5569 49.7658 29.123 49.6642C29.5775 48.6689 30.0527 47.8158 30.3832 46.9018C31.4575 44.0174 32.0566 41.0112 32.6558 38.0253C32.8004 37.2331 32.9243 36.5019 33.0896 35.6894Z" fill="#FF7A00"/>
<path d="M85.44 19.4802C86.5969 19.4192 87.6712 19.3786 88.7455 19.2974C90.0057 19.1958 90.047 19.1958 90.2123 17.9771C90.4189 16.4739 90.5635 14.9505 90.6875 13.4271C90.7288 12.9193 90.8734 12.7162 91.3692 12.6349C92.4642 12.4724 93.5384 12.4927 94.4888 13.1224C95.2738 13.6505 95.7283 14.3818 95.7077 15.3365C95.6663 16.3927 95.6044 17.4489 95.5424 18.5864C101.348 17.7333 106.967 16.3521 112.049 13.3052C112.09 13.3255 112.152 13.3459 112.194 13.3662C112.111 13.813 112.07 14.2802 111.946 14.7068C111.533 15.9865 110.686 16.9818 109.653 17.8349C107.607 19.5411 105.211 20.577 102.649 21.1458C100.294 21.6739 97.8769 21.9989 95.5011 22.4051C95.1705 22.4661 95.0466 22.5473 94.9846 22.8926C94.5921 25.8379 94.1582 28.7832 93.7863 31.7285C93.5178 33.8816 93.2285 36.055 93.0633 38.2284C92.9187 40.0768 93.1046 41.9049 93.8896 43.6315C92.2162 44.2409 90.3156 43.7737 89.3033 42.3518C88.3736 41.0518 88.0637 39.569 87.9191 38.0456C87.6506 35.4863 87.9191 32.9269 88.2703 30.4082C88.6215 28.0113 89.0141 25.6145 89.3859 23.2379C89.4066 23.1567 89.4066 23.0754 89.4273 22.9129C89.2413 22.9129 89.076 22.8926 88.9314 22.8926C87.7952 22.9333 86.6589 22.9942 85.5227 22.9739C85.0682 22.9739 84.9442 23.1364 84.8822 23.5426C84.5104 26.4067 84.0765 29.2707 83.7253 32.155C83.4361 34.4503 83.1675 36.7659 83.0229 39.0815C82.8989 40.9096 83.0849 42.7377 83.8286 44.5252C82.9196 44.8096 82.0519 44.8299 81.1429 44.5862C80.0686 44.2815 79.3456 43.5705 78.8291 42.6159C78.168 41.3971 77.9201 40.0768 77.8168 38.7159C77.5689 35.9738 77.8994 33.2722 78.2713 30.5707C78.6225 28.1129 79.0357 25.6551 79.4282 23.0958C76.1434 23.0958 73.1065 23.7661 70.3175 25.5129C69.6564 24.7817 69.5738 23.6848 70.1109 22.7301C70.5861 21.8973 71.3091 21.3489 72.1355 20.902C73.7056 20.0489 75.4203 19.7442 77.197 19.663C77.982 19.6224 78.7878 19.6224 79.5728 19.6224C79.8827 19.6224 80.0273 19.5208 80.0686 19.1958C80.2339 17.5099 80.4198 15.824 80.5851 14.138C80.6264 13.7521 80.7504 13.6099 81.1223 13.5287C82.1759 13.3459 83.2088 13.3052 84.2005 13.813C85.2334 14.3208 85.8119 15.0927 85.7086 16.2911C85.6053 17.3271 85.5433 18.363 85.44 19.4802Z" fill="#FF7A00"/>
<path d="M52.6125 29.4738C53.7695 26.9957 55.1743 24.7411 57.0543 22.7911C57.9839 21.8364 58.9962 20.9833 60.2151 20.3739C61.0828 19.9474 62.0125 19.6833 63.0041 19.7645C64.3263 19.8661 65.1114 20.7395 65.0494 22.0192C64.9874 23.1161 64.5536 24.0911 63.8098 24.9036C63.376 25.3707 62.8389 25.6145 62.1984 25.716C58.9756 26.1832 56.5791 27.9504 54.7198 30.5097C52.8605 33.0894 51.7862 35.9941 51.0631 39.0612C50.4846 41.4784 50.1334 43.9362 50.1334 46.4346C50.1334 46.9018 49.9888 47.1455 49.555 47.308C48.584 47.6939 47.613 47.9783 46.5594 47.9377C45.0513 47.8768 44.1629 46.9424 44.3902 45.4799C44.824 42.9002 45.3405 40.3612 45.795 37.7816C46.2495 35.2222 46.6627 32.6425 46.642 30.0223C46.642 29.4738 46.5594 28.9051 46.5594 28.3566C46.5594 28.2145 46.6007 27.9707 46.704 27.9301C47.7576 27.402 48.8319 26.9551 50.0508 27.1176C50.9805 27.2395 51.6622 27.7473 52.1374 28.5395C52.3027 28.8238 52.4266 29.1285 52.6125 29.4738Z" fill="#FF7A00"/>
<path d="M121.18 41.5799C119.92 42.1893 117.978 41.7221 116.966 40.5643C116.078 39.5487 115.726 38.3097 115.499 37.0503C115.086 34.6128 115.21 32.155 115.561 29.7176C116.264 24.8426 117.028 19.988 117.751 15.1333C117.937 13.7927 118.02 12.4318 118.185 11.0912C118.206 10.9287 118.371 10.7053 118.495 10.6646C119.631 10.4006 120.747 10.3599 121.8 10.949C122.689 11.4365 123.246 12.1677 123.143 13.224C122.895 15.6208 122.627 17.9974 122.317 20.3942C121.738 24.9442 121.098 29.4941 120.54 34.0441C120.292 36.0753 120.271 38.1269 120.705 40.1581C120.829 40.6253 121.036 41.0924 121.18 41.5799Z" fill="#FF7A00"/>
<path d="M130.994 40.7878C127.812 41.6612 125.746 40.4018 125.23 37.8019C124.899 36.1972 125.064 34.5925 125.271 33.0082C125.664 29.9613 126.077 26.9348 126.49 23.9082C126.511 23.7457 126.696 23.4817 126.841 23.4411C127.895 23.177 128.969 23.1364 129.961 23.6442C130.973 24.1723 131.593 24.9848 131.469 26.1426C131.283 28.052 130.994 29.941 130.787 31.83C130.58 33.6175 130.374 35.3847 130.25 37.1722C130.147 38.4112 130.312 39.63 130.994 40.7878Z" fill="#FF7A00"/>
<path d="M132.998 15.9865C133.039 17.713 132.564 18.8302 131.593 19.7442C129.981 21.2473 127.605 20.6583 126.965 18.5661C126.511 17.0833 126.8 15.7224 127.812 14.524C128.721 13.4474 130.105 13.0412 131.221 13.4474C132.398 13.8537 132.998 14.8693 132.998 15.9865Z" fill="#FF7A00"/>
<path d="M73.4577 29.1082C72.2801 27.7879 70.4414 27.5848 68.8713 28.5801C68.4582 28.8441 68.0863 29.2098 67.6938 29.5348C66.4542 28.0113 64.8221 27.8082 63.0248 28.2551C61.1655 28.7223 59.9052 29.9816 58.9549 31.566C57.6327 33.7597 57.1163 36.1769 57.1576 38.7159C57.1782 40.3409 57.4881 41.9049 58.2938 43.3471C59.9052 46.1908 63.2107 46.7799 65.6692 44.5862C66.4129 43.9159 67.0327 43.1237 67.7351 42.3518C67.921 43.2252 68.2516 44.058 68.8713 44.7487C70.0283 46.008 71.743 46.0893 73.0032 44.9315C73.1271 44.8096 73.1891 44.5659 73.1891 44.383C73.0652 42.9612 72.8379 41.5596 72.7759 40.1378C72.6726 36.6644 73.0032 33.2113 73.6643 29.7988C73.7263 29.616 73.623 29.291 73.4577 29.1082ZM67.5905 33.4957C67.4045 35.3441 67.0947 37.1519 66.4542 38.8987C66.2476 39.5081 65.9584 40.0972 65.6278 40.6456C65.318 41.1737 64.8635 41.6612 64.1404 41.5596C63.3967 41.4581 63.0661 40.8893 62.9008 40.28C62.7149 39.5893 62.6323 38.8581 62.5083 38.1472C62.6323 36.5222 62.9008 34.9581 63.6446 33.516C63.9131 32.9879 64.3057 32.48 64.7188 32.0535C65.2973 31.4847 66.1237 31.3629 66.7021 31.6879C67.3632 32.0129 67.6731 32.7238 67.5905 33.4957Z" fill="#FF7A00"/>
<path d="M106.554 34.2066C108.992 33.9019 110.892 32.7035 111.966 30.4691C113.433 27.4426 112.008 24.3145 108.764 23.6239C105.314 22.8723 102.298 23.7661 100.087 26.5285C97.7116 29.4738 97.1125 32.9066 97.7942 36.5425C98.1661 38.5128 99.0131 40.2393 100.604 41.5393C103.104 43.5909 107.38 43.0424 109.549 41.2956C110.562 40.5034 111.285 39.5081 111.574 38.2487C111.966 36.4612 110.789 35.1003 108.971 35.3034C108.496 35.3644 108.021 35.5878 107.566 35.7706C107.174 35.9128 107.008 36.1769 106.988 36.6237C106.946 37.7206 106.74 38.7768 106.141 39.7315C105.851 40.1987 105.479 40.5643 104.86 40.5237C104.24 40.4628 103.971 40.0159 103.785 39.5487C103.124 37.8222 103.29 36.0347 103.352 34.2472C104.488 34.2269 105.541 34.3285 106.554 34.2066ZM103.661 31.9925C103.951 30.3676 104.323 28.7629 105.046 27.2801C105.294 26.7723 105.645 26.3051 105.996 25.8582C106.265 25.5332 106.657 25.3707 107.112 25.4926C107.566 25.6145 107.669 26.0004 107.752 26.3863C108.124 28.1941 106.926 30.9363 105.314 31.8707C104.839 32.1347 104.281 32.2566 103.641 32.5004C103.661 32.1957 103.641 32.0941 103.661 31.9925Z" fill="#FF7A00"/>
</svg>
