<svg width="50" height="50" viewBox="0 0 50 50" fill="none" xmlns="http://www.w3.org/2000/svg">
<rect width="50" height="50" rx="25" transform="matrix(-1 0 0 1 50 0)" fill="#97CD92"/>
<path d="M34.3984 17.3986C34.841 16.956 35.5586 16.956 36.0012 17.3986C36.4438 17.8412 36.4438 18.5588 36.0012 19.0014L22.4012 32.6014C21.9586 33.044 21.241 33.044 20.7984 32.6014L15.1318 26.9347C14.6892 26.4921 14.6892 25.7745 15.1318 25.3319C15.5743 24.8893 16.2919 24.8893 16.7345 25.3319L21.5998 30.1972L34.3984 17.3986Z" fill="black"/>
<mask id="mask0_488_7683" style="mask-type:alpha" maskUnits="userSpaceOnUse" x="14" y="17" width="23" height="16">
<path d="M34.3984 17.3986C34.841 16.956 35.5586 16.956 36.0012 17.3986C36.4438 17.8412 36.4438 18.5588 36.0012 19.0014L22.4012 32.6014C21.9586 33.044 21.241 33.044 20.7984 32.6014L15.1318 26.9347C14.6892 26.4921 14.6892 25.7745 15.1318 25.3319C15.5743 24.8893 16.2919 24.8893 16.7345 25.3319L21.5998 30.1972L34.3984 17.3986Z" fill="white"/>
</mask>
<g mask="url(#mask0_488_7683)">
<rect x="8" y="8" width="34" height="34" fill="white"/>
</g>
</svg>
