<svg width="50" height="50" viewBox="0 0 50 50" fill="none" xmlns="http://www.w3.org/2000/svg">
<rect width="50" height="50" rx="25" transform="matrix(-1 0 0 1 50 0)" fill="#4D62ED"/>
<path d="M25 33.6666L24.5134 34.5402C24.8159 34.7087 25.1841 34.7087 25.4866 34.5402L25 33.6666ZM25 19.759L24.0797 20.1501C24.2365 20.5193 24.5989 20.759 25 20.759C25.4011 20.759 25.7635 20.5193 25.9203 20.1501L25 19.759ZM14.25 21.72C14.25 25.4439 16.9978 28.6896 19.4597 30.8835C20.7225 32.0088 21.9806 32.9193 22.9209 33.5477C23.392 33.8626 23.7858 34.1082 24.0636 34.2762C24.2026 34.3603 24.3128 34.425 24.3893 34.4693C24.4276 34.4915 24.4574 34.5086 24.4783 34.5204C24.4888 34.5264 24.497 34.531 24.5028 34.5343C24.5058 34.5359 24.5081 34.5373 24.5099 34.5383C24.5108 34.5387 24.5115 34.5392 24.5121 34.5395C24.5124 34.5397 24.5127 34.5398 24.5129 34.5399C24.5132 34.5401 24.5134 34.5402 25 33.6666C25.4866 32.7929 25.4868 32.793 25.4869 32.7931C25.4869 32.7931 25.487 32.7932 25.487 32.7932C25.487 32.7932 25.4868 32.7931 25.4865 32.7929C25.486 32.7926 25.4848 32.7919 25.483 32.791C25.4795 32.789 25.4737 32.7857 25.4657 32.7812C25.4497 32.7721 25.4249 32.7579 25.3917 32.7387C25.3254 32.7003 25.2261 32.642 25.0985 32.5648C24.8431 32.4104 24.4752 32.1809 24.0322 31.8849C23.1444 31.2915 21.965 30.4371 20.7903 29.3903C18.3772 27.24 16.25 24.5124 16.25 21.72H14.25ZM25.9203 19.3679C24.6558 16.3922 21.776 15.0177 19.1695 15.3942C17.8618 15.5831 16.6173 16.2147 15.7027 17.3047C14.7853 18.398 14.25 19.8914 14.25 21.72H16.25C16.25 20.2903 16.6626 19.2722 17.2348 18.5903C17.8097 17.9051 18.5965 17.4977 19.4555 17.3736C21.1824 17.1242 23.1775 18.0273 24.0797 20.1501L25.9203 19.3679ZM33.75 21.72C33.75 24.5124 31.6228 27.24 29.2097 29.3903C28.035 30.4371 26.8556 31.2915 25.9678 31.8849C25.5248 32.1809 25.1569 32.4104 24.9015 32.5648C24.7739 32.642 24.6746 32.7003 24.6083 32.7387C24.5751 32.7579 24.5503 32.7721 24.5343 32.7812C24.5263 32.7857 24.5205 32.789 24.517 32.791C24.5152 32.7919 24.514 32.7926 24.5135 32.7929C24.5132 32.7931 24.513 32.7932 24.513 32.7932C24.513 32.7932 24.5131 32.7931 24.5131 32.7931C24.5132 32.793 24.5134 32.7929 25 33.6666C25.4866 34.5402 25.4868 34.5401 25.4871 34.5399C25.4873 34.5398 25.4876 34.5397 25.4879 34.5395C25.4885 34.5392 25.4892 34.5387 25.4901 34.5383C25.4919 34.5373 25.4942 34.5359 25.4972 34.5343C25.503 34.531 25.5112 34.5264 25.5217 34.5204C25.5426 34.5086 25.5724 34.4915 25.6107 34.4693C25.6872 34.425 25.7974 34.3603 25.9364 34.2762C26.2142 34.1082 26.608 33.8626 27.0791 33.5477C28.0194 32.9193 29.2775 32.0088 30.5403 30.8835C33.0022 28.6896 35.75 25.4439 35.75 21.72H33.75ZM25.9203 20.1501C26.8225 18.0273 28.8176 17.1242 30.5445 17.3736C31.4035 17.4977 32.1903 17.9051 32.7652 18.5903C33.3374 19.2722 33.75 20.2903 33.75 21.72H35.75C35.75 19.8914 35.2147 18.398 34.2973 17.3047C33.3827 16.2147 32.1382 15.5831 30.8305 15.3942C28.224 15.0177 25.3442 16.3922 24.0797 19.3679L25.9203 20.1501Z" fill="white"/>
</svg>
