<svg width="51" height="51" viewBox="0 0 51 51" fill="none" xmlns="http://www.w3.org/2000/svg">
<rect x="1" y="1" width="49" height="49" rx="24.5" stroke="#FF7A00" stroke-width="2"/>
<path fill-rule="evenodd" clip-rule="evenodd" d="M18.3988 17.3986C17.9562 17.8412 17.9562 18.5588 18.3988 19.0014L24.3975 25L18.3988 30.9986C17.9562 31.4412 17.9562 32.1588 18.3988 32.6014C18.8414 33.044 19.559 33.044 20.0016 32.6014L26.0002 26.6028L31.9988 32.6014C32.4414 33.044 33.159 33.044 33.6016 32.6014C34.0442 32.1588 34.0442 31.4412 33.6016 30.9986L27.603 25L33.6016 19.0014C34.0442 18.5588 34.0442 17.8412 33.6016 17.3986C33.159 16.956 32.4414 16.956 31.9988 17.3986L26.0002 23.3972L20.0016 17.3986C19.559 16.956 18.8414 16.956 18.3988 17.3986Z" fill="black"/>
<mask id="mask0_488_7680" style="mask-type:alpha" maskUnits="userSpaceOnUse" x="18" y="17" width="16" height="16">
<path fill-rule="evenodd" clip-rule="evenodd" d="M18.3988 17.3986C17.9562 17.8412 17.9562 18.5588 18.3988 19.0014L24.3975 25L18.3988 30.9986C17.9562 31.4412 17.9562 32.1588 18.3988 32.6014C18.8414 33.044 19.559 33.044 20.0016 32.6014L26.0002 26.6028L31.9988 32.6014C32.4414 33.044 33.159 33.044 33.6016 32.6014C34.0442 32.1588 34.0442 31.4412 33.6016 30.9986L27.603 25L33.6016 19.0014C34.0442 18.5588 34.0442 17.8412 33.6016 17.3986C33.159 16.956 32.4414 16.956 31.9988 17.3986L26.0002 23.3972L20.0016 17.3986C19.559 16.956 18.8414 16.956 18.3988 17.3986Z" fill="white"/>
</mask>
<g mask="url(#mask0_488_7680)">
<rect x="9" y="8" width="34" height="34" fill="#FF7A00"/>
</g>
</svg>
