<svg width="32" height="32" viewBox="0 0 32 32" fill="none" xmlns="http://www.w3.org/2000/svg">
<path d="M26.1667 29.3333L23.444 26.9333L21.9094 25.5067L20.2867 24L20.9534 26.3453H6.59602C5.15817 26.3402 3.99633 25.1712 4.00001 23.7333V6.60933C3.9978 5.17252 5.15922 4.00515 6.59602 4H23.5707C25.0075 4.00515 26.1689 5.17252 26.1667 6.60933V29.3333ZM20.1334 18.0107C19.5711 18.7647 18.7617 19.2971 17.8467 19.5147C18.2227 19.9947 18.676 20.5373 18.68 20.5427C20.2095 20.575 21.6577 19.8556 22.556 18.6173C22.51 16.0503 21.8866 13.5265 20.732 11.2333C19.7155 10.4357 18.4782 9.97018 17.188 9.9H17.1734L16.996 10.1027C18.1484 10.4122 19.2231 10.96 20.1507 11.7107C18.9705 11.0619 17.6753 10.6489 16.3374 10.4947C15.487 10.4002 14.6283 10.4087 13.78 10.52C13.72 10.5212 13.6603 10.5274 13.6014 10.5387H13.564C12.5698 10.6531 11.5998 10.9231 10.6894 11.3387C10.2334 11.548 9.95335 11.7 9.94135 11.7053C9.92935 11.7107 9.94135 11.7053 9.94135 11.696C10.9252 10.9222 12.0602 10.3631 13.2733 10.0547L13.14 9.90267H13.132C11.8419 9.97302 10.6046 10.4385 9.58802 11.236C8.42922 13.5276 7.80557 16.0524 7.76402 18.62C8.65113 19.8665 10.1014 20.5886 11.6307 20.5453C11.6307 20.5453 12.108 19.964 12.48 19.4933C11.588 19.2692 10.802 18.7411 10.2573 18C10.2667 18.0067 10.3987 18.096 10.612 18.2133C10.6263 18.2302 10.6441 18.2438 10.664 18.2533C10.6809 18.265 10.6988 18.2753 10.7174 18.284C10.7384 18.2936 10.7585 18.3052 10.7774 18.3187C11.0748 18.4826 11.3836 18.6252 11.7014 18.7453C12.3054 18.9845 12.9303 19.1675 13.568 19.292C14.1263 19.3973 14.6932 19.4508 15.2614 19.452C15.7941 19.4519 16.3256 19.4028 16.8494 19.3053C17.4801 19.1946 18.0961 19.0121 18.6854 18.7613C19.1944 18.5656 19.68 18.3138 20.1334 18.0107ZM17.416 17.4413C16.8359 17.4919 16.2843 17.1812 16.0268 16.6589C15.7694 16.1366 15.859 15.5099 16.2524 15.0806C16.6459 14.6513 17.2625 14.5076 17.8052 14.7187C18.3479 14.9298 18.7053 15.4524 18.7054 16.0347C18.7347 16.7785 18.1583 17.4067 17.4147 17.4413H17.416ZM12.792 17.4413C12.0625 17.3777 11.5026 16.767 11.5026 16.0347C11.5026 15.3024 12.0625 14.6916 12.792 14.628C13.1281 14.629 13.4494 14.7661 13.6827 15.008C13.9474 15.2828 14.0914 15.6519 14.0827 16.0333C14.1135 16.7785 13.5357 17.4082 12.7907 17.4413H12.792Z" fill="white"/>
</svg>
