<svg width="22" height="20" viewBox="0 0 22 20" fill="none" xmlns="http://www.w3.org/2000/svg">
<path d="M11 18.6666C11 18.6666 1.25 13.2363 1.25 6.71995C1.25 0.203578 8.83333 -0.339451 11 4.75898C13.1667 -0.339451 20.75 0.203578 20.75 6.71995C20.75 13.2363 11 18.6666 11 18.6666Z" fill="#4D62ED"/>
<path d="M11 18.6666L10.5134 19.5402C10.8159 19.7087 11.1841 19.7087 11.4866 19.5402L11 18.6666ZM11 4.75898L10.0797 5.15009C10.2365 5.51927 10.5989 5.75898 11 5.75898C11.4011 5.75898 11.7635 5.51927 11.9203 5.15009L11 4.75898ZM0.25 6.71995C0.25 10.4439 2.99781 13.6896 5.4597 15.8835C6.72248 17.0088 7.98063 17.9193 8.9209 18.5477C9.39201 18.8626 9.78576 19.1082 10.0636 19.2762C10.2026 19.3603 10.3128 19.425 10.3893 19.4693C10.4276 19.4915 10.4574 19.5086 10.4783 19.5204C10.4888 19.5264 10.497 19.531 10.5028 19.5343C10.5058 19.5359 10.5081 19.5373 10.5099 19.5383C10.5108 19.5387 10.5115 19.5392 10.5121 19.5395C10.5124 19.5397 10.5127 19.5398 10.5129 19.5399C10.5132 19.5401 10.5134 19.5402 11 18.6666C11.4866 17.7929 11.4868 17.793 11.4869 17.7931C11.4869 17.7931 11.487 17.7932 11.487 17.7932C11.487 17.7932 11.4868 17.7931 11.4865 17.7929C11.486 17.7926 11.4848 17.7919 11.483 17.791C11.4795 17.789 11.4737 17.7857 11.4657 17.7812C11.4497 17.7721 11.4249 17.7579 11.3917 17.7387C11.3254 17.7003 11.2261 17.642 11.0985 17.5648C10.8431 17.4104 10.4752 17.1809 10.0322 16.8849C9.14437 16.2915 7.96502 15.4371 6.7903 14.3903C4.37719 12.24 2.25 9.51238 2.25 6.71995H0.25ZM11.9203 4.36786C10.6558 1.39222 7.77598 0.0176547 5.16952 0.394188C3.8618 0.583104 2.61734 1.21468 1.7027 2.3047C0.785337 3.39798 0.25 4.89144 0.25 6.71995H2.25C2.25 5.29027 2.66258 4.27222 3.2348 3.59027C3.80975 2.90507 4.59653 2.49772 5.45548 2.37364C7.18236 2.12417 9.17754 3.02731 10.0797 5.15009L11.9203 4.36786ZM19.75 6.71995C19.75 9.51238 17.6228 12.24 15.2097 14.3903C14.035 15.4371 12.8556 16.2915 11.9678 16.8849C11.5248 17.1809 11.1569 17.4104 10.9015 17.5648C10.7739 17.642 10.6746 17.7003 10.6083 17.7387C10.5751 17.7579 10.5503 17.7721 10.5343 17.7812C10.5263 17.7857 10.5205 17.789 10.517 17.791C10.5152 17.7919 10.514 17.7926 10.5135 17.7929C10.5132 17.7931 10.513 17.7932 10.513 17.7932C10.513 17.7932 10.5131 17.7931 10.5131 17.7931C10.5132 17.793 10.5134 17.7929 11 18.6666C11.4866 19.5402 11.4868 19.5401 11.4871 19.5399C11.4873 19.5398 11.4876 19.5397 11.4879 19.5395C11.4885 19.5392 11.4892 19.5387 11.4901 19.5383C11.4919 19.5373 11.4942 19.5359 11.4972 19.5343C11.503 19.531 11.5112 19.5264 11.5217 19.5204C11.5426 19.5086 11.5724 19.4915 11.6107 19.4693C11.6872 19.425 11.7974 19.3603 11.9364 19.2762C12.2142 19.1082 12.608 18.8626 13.0791 18.5477C14.0194 17.9193 15.2775 17.0088 16.5403 15.8835C19.0022 13.6896 21.75 10.4439 21.75 6.71995H19.75ZM11.9203 5.15009C12.8225 3.02731 14.8176 2.12417 16.5445 2.37364C17.4035 2.49772 18.1903 2.90507 18.7652 3.59027C19.3374 4.27222 19.75 5.29027 19.75 6.71995H21.75C21.75 4.89144 21.2147 3.39798 20.2973 2.3047C19.3827 1.21468 18.1382 0.583104 16.8305 0.394188C14.224 0.0176547 11.3442 1.39222 10.0797 4.36786L11.9203 5.15009Z" fill="#4D62ED"/>
</svg>
