<svg width="29" height="29" viewBox="0 0 29 29" fill="none" xmlns="http://www.w3.org/2000/svg">
<rect width="29" height="29" rx="14.5" transform="matrix(-1 0 0 1 29 0)" fill="#97CD92"/>
<path d="M21.0818 10.0815C21.3682 9.7951 21.8326 9.7951 22.1189 10.0815C22.4053 10.3679 22.4053 10.8322 22.1189 11.1186L13.3189 19.9186C13.0326 20.205 12.5682 20.205 12.2818 19.9186L8.61518 16.2519C8.32879 15.9655 8.32879 15.5012 8.61518 15.2148C8.90156 14.9284 9.36588 14.9284 9.65227 15.2148L12.8004 18.3629L21.0818 10.0815Z" fill="black"/>
<mask id="mask0_687_5541" style="mask-type:alpha" maskUnits="userSpaceOnUse" x="8" y="9" width="15" height="12">
<path d="M21.0818 10.0815C21.3682 9.7951 21.8326 9.7951 22.1189 10.0815C22.4053 10.3679 22.4053 10.8322 22.1189 11.1186L13.3189 19.9186C13.0326 20.205 12.5682 20.205 12.2818 19.9186L8.61518 16.2519C8.32879 15.9655 8.32879 15.5012 8.61518 15.2148C8.90156 14.9284 9.36588 14.9284 9.65227 15.2148L12.8004 18.3629L21.0818 10.0815Z" fill="white"/>
</mask>
<g mask="url(#mask0_687_5541)">
<rect x="4" y="4" width="22" height="22" fill="white"/>
</g>
</svg>
