<svg width="209" height="209" viewBox="0 0 209 209" fill="none" xmlns="http://www.w3.org/2000/svg">
<path d="M104.499 139.333C123.737 139.333 139.333 123.738 139.333 104.5C139.333 85.2622 123.737 69.6667 104.499 69.6667C85.2614 69.6667 69.666 85.2622 69.666 104.5C69.666 123.738 85.2614 139.333 104.499 139.333Z" stroke="#97CD92" stroke-width="17.4167" stroke-linecap="round" stroke-linejoin="round"/>
<path d="M166.345 68.1532L173.886 63.7973L173.886 63.7973L166.345 68.1532ZM166.918 69.1446L159.377 73.5005L159.377 73.5005L166.918 69.1446ZM173.532 75.653L177.765 68.043L177.765 68.043L173.532 75.653ZM187.04 83.1675L182.806 90.7775L182.806 90.7775L187.04 83.1675ZM191.515 90.7578L182.806 90.7775L182.806 90.7775L191.515 90.7578ZM191.577 118.205L182.869 118.225L182.869 118.225L191.577 118.205ZM187.09 125.842L182.869 118.225L182.869 118.225L187.09 125.842ZM173.549 133.345L177.77 140.962L177.77 140.962L173.549 133.345ZM166.91 139.867L159.369 135.512L159.369 135.512L166.91 139.867ZM166.345 140.846L173.886 145.202L173.886 145.201L166.345 140.846ZM164.012 149.85L155.305 149.997L155.305 149.997L164.012 149.85ZM164.273 165.359L155.566 165.506L155.566 165.506L164.273 165.359ZM159.937 173.037L155.566 165.506L155.566 165.506L159.937 173.037ZM136.181 186.825L140.552 194.357L140.552 194.357L136.181 186.825ZM127.327 186.76L131.81 179.293L131.81 179.293L127.327 186.76ZM114.038 178.781L109.556 186.248L109.556 186.248L114.038 178.781ZM94.9791 178.771L99.4527 186.242L99.4527 186.242L94.9791 178.771ZM81.7504 186.692L77.2767 179.221L77.2767 179.221L81.7504 186.692ZM72.9288 186.766L77.2768 179.221L77.2767 179.221L72.9288 186.766ZM49.0973 173.033L53.4452 165.488L53.4452 165.488L49.0973 173.033ZM44.7381 165.341L53.4452 165.488L53.4452 165.488L44.7381 165.341ZM44.9988 149.9L36.2917 149.753L36.2917 149.753L44.9988 149.9ZM42.7002 140.954L50.258 136.627L50.258 136.627L42.7002 140.954ZM42.0948 139.896L34.537 144.222L34.537 144.222L42.0948 139.896ZM35.4462 133.328L31.2127 140.938L31.2127 140.938L35.4462 133.328ZM21.9708 125.831L17.7372 133.441L17.7373 133.441L21.9708 125.831ZM17.496 118.241L8.78765 118.261L17.496 118.241ZM17.4336 90.794L26.1419 90.7742L17.4336 90.794ZM21.9209 83.1573L26.1419 90.7742L26.1419 90.7742L21.9209 83.1573ZM35.4613 75.6536L31.2403 68.0366L31.2403 68.0366L35.4613 75.6536ZM42.1006 69.1314L34.5599 64.7755L34.5599 64.7755L42.1006 69.1314ZM42.6656 68.1532L50.2063 72.509L50.2063 72.509L42.6656 68.1532ZM44.9985 59.1485L53.7056 59.002L53.7056 59.002L44.9985 59.1485ZM44.7375 43.6397L36.0304 43.7862L44.7375 43.6397ZM49.0733 35.9615L53.4446 43.4932L53.4446 43.4932L49.0733 35.9615ZM72.8295 22.1737L77.2008 29.7054L77.2008 29.7054L72.8295 22.1737ZM81.6831 22.2392L77.2008 29.7054L77.2008 29.7054L81.6831 22.2392ZM94.9726 30.2175L90.4903 37.6837L90.4903 37.6837L94.9726 30.2175ZM114.031 30.2279L109.558 22.7565L109.558 22.7565L114.031 30.2279ZM127.26 22.3069L122.786 14.8356L122.786 14.8356L127.26 22.3069ZM136.082 22.2331L140.43 14.6879L140.43 14.6879L136.082 22.2331ZM159.914 35.9662L164.261 28.421L164.261 28.421L159.914 35.9662ZM164.273 43.6579L155.566 43.5114L155.566 43.5114L164.273 43.6579ZM164.012 59.1485L155.305 59.002L155.305 59.002L164.012 59.1485ZM158.804 72.509L159.377 73.5005L174.458 64.7888L173.886 63.7973L158.804 72.509ZM169.298 83.263L182.806 90.7775L191.273 75.5575L177.765 68.043L169.298 83.263ZM182.806 90.7775L182.869 118.225L200.285 118.185L200.223 90.738L182.806 90.7775ZM182.869 118.225L169.328 125.728L177.77 140.962L191.311 133.459L182.869 118.225ZM159.369 135.512L158.804 136.49L173.886 145.201L174.451 144.223L159.369 135.512ZM155.305 149.997L155.566 165.506L172.98 165.213L172.719 149.704L155.305 149.997ZM155.566 165.506L131.81 179.293L140.552 194.357L164.309 180.569L155.566 165.506ZM131.81 179.293L118.52 171.315L109.556 186.248L122.845 194.226L131.81 179.293ZM105.073 167.589H103.926V185.005H105.073V167.589ZM90.5054 171.3L77.2767 179.221L86.2241 194.163L99.4527 186.242L90.5054 171.3ZM77.2767 179.221L53.4452 165.488L44.7494 180.578L68.5809 194.311L77.2767 179.221ZM53.4452 165.488L53.7059 150.047L36.2917 149.753L36.031 165.194L53.4452 165.488ZM50.258 136.627L49.6526 135.57L34.537 144.222L35.1424 145.28L50.258 136.627ZM39.6797 125.718L26.2043 118.221L17.7373 133.441L31.2127 140.938L39.6797 125.718ZM26.2043 118.221L26.1419 90.7742L8.72531 90.8138L8.78765 118.261L26.2043 118.221ZM26.1419 90.7742L39.6824 83.2705L31.2403 68.0366L17.6998 75.5403L26.1419 90.7742ZM49.6412 73.4872L50.2063 72.509L35.1249 63.7973L34.5599 64.7755L49.6412 73.4872ZM53.7056 59.002L53.4446 43.4932L36.0304 43.7862L36.2914 59.295L53.7056 59.002ZM53.4446 43.4932L77.2008 29.7054L68.4582 14.642L44.702 28.4298L53.4446 43.4932ZM77.2008 29.7054L90.4903 37.6837L99.4549 22.7513L86.1655 14.773L77.2008 29.7054ZM103.937 41.4102H105.084V23.9935H103.937V41.4102ZM118.505 37.6993L131.734 29.7783L122.786 14.8356L109.558 22.7565L118.505 37.6993ZM131.734 29.7783L155.566 43.5114L164.261 28.421L140.43 14.6879L131.734 29.7783ZM155.566 43.5114L155.305 59.002L172.719 59.295L172.98 43.8044L155.566 43.5114ZM155.566 43.5114L155.566 43.5114L172.98 43.8044C173.086 37.473 169.748 31.5826 164.261 28.421L155.566 43.5114ZM131.734 29.7783L131.734 29.7783L140.43 14.6879C134.957 11.5342 128.206 11.5907 122.786 14.8356L131.734 29.7783ZM105.084 41.4102C109.811 41.4102 114.45 40.1276 118.505 37.6993L109.558 22.7565C108.206 23.566 106.66 23.9935 105.084 23.9935V41.4102ZM90.4903 37.6837C94.5519 40.1221 99.2 41.4102 103.937 41.4102V23.9935C102.358 23.9935 100.809 23.5641 99.4549 22.7513L90.4903 37.6837ZM77.2008 29.7054L77.2008 29.7054L86.1655 14.773C80.7273 11.5082 73.9441 11.458 68.4582 14.642L77.2008 29.7054ZM53.4446 43.4932L53.4446 43.4932L44.702 28.4298C39.242 31.5987 35.9242 37.4741 36.0304 43.7862L53.4446 43.4932ZM50.2063 72.509C52.5757 68.4072 53.7853 63.7383 53.7056 59.002L36.2914 59.295C36.3179 60.8738 35.9147 62.43 35.1249 63.7973L50.2063 72.509ZM39.6824 83.2705C43.828 80.9731 47.2705 77.5913 49.6412 73.4872L34.5599 64.7755C33.7696 66.1436 32.6221 67.2708 31.2403 68.0366L39.6824 83.2705ZM26.1419 90.7742L26.1419 90.7742L17.6998 75.5403C12.1492 78.6163 8.71089 84.4678 8.72531 90.8138L26.1419 90.7742ZM26.2043 118.221L26.2043 118.221L8.78765 118.261C8.80198 124.568 12.2254 130.375 17.7372 133.441L26.2043 118.221ZM49.6526 135.57C47.2879 131.439 43.8395 128.032 39.6797 125.718L31.2127 140.938C32.5993 141.709 33.7488 142.845 34.537 144.222L49.6526 135.57ZM53.7059 150.047C53.7853 145.345 52.5941 140.709 50.258 136.627L35.1424 145.28C35.9211 146.64 36.3182 148.185 36.2917 149.753L53.7059 150.047ZM53.4452 165.488L53.4452 165.488L36.031 165.194C35.9242 171.525 39.2625 177.416 44.7494 180.578L53.4452 165.488ZM77.2767 179.221L77.2768 179.221L68.5809 194.311C74.0536 197.465 80.8049 197.408 86.2241 194.163L77.2767 179.221ZM103.926 167.589C99.1994 167.589 94.561 168.871 90.5054 171.3L99.4527 186.242C100.805 185.433 102.351 185.005 103.926 185.005V167.589ZM118.52 171.315C114.459 168.877 109.811 167.589 105.073 167.589V185.005C106.652 185.005 108.202 185.435 109.556 186.248L118.52 171.315ZM131.81 179.293L131.81 179.293L122.845 194.226C128.283 197.491 135.066 197.541 140.552 194.357L131.81 179.293ZM155.566 165.506L155.566 165.506L164.309 180.569C169.769 177.4 173.086 171.525 172.98 165.213L155.566 165.506ZM158.804 136.49C156.435 140.592 155.225 145.261 155.305 149.997L172.719 149.704C172.693 148.125 173.096 146.569 173.886 145.202L158.804 136.49ZM169.328 125.728C165.183 128.026 161.74 131.408 159.369 135.512L174.451 144.223C175.241 142.855 176.388 141.728 177.77 140.962L169.328 125.728ZM182.869 118.225L182.869 118.225L191.311 133.459C196.861 130.383 200.3 124.531 200.285 118.185L182.869 118.225ZM182.806 90.7775L182.806 90.7775L200.223 90.738C200.209 84.4306 196.785 78.6238 191.273 75.5575L182.806 90.7775ZM159.377 73.5005C161.74 77.592 165.169 80.966 169.298 83.263L177.765 68.043C176.389 67.2773 175.246 66.1527 174.458 64.7888L159.377 73.5005ZM173.886 63.7973C173.096 62.4301 172.693 60.8738 172.719 59.295L155.305 59.002C155.225 63.7383 156.435 68.4072 158.804 72.509L173.886 63.7973Z" fill="#97CD92"/>
</svg>
