<svg width="32" height="32" viewBox="0 0 32 32" fill="none" xmlns="http://www.w3.org/2000/svg">
<path d="M26.66 8.91736C27.8553 8.20281 28.7496 7.07767 29.176 5.75203C28.0529 6.41843 26.8241 6.88786 25.5427 7.14003C23.7661 5.26073 20.9514 4.80339 18.6712 6.02357C16.3911 7.24374 15.21 9.83935 15.788 12.36C11.1875 12.1291 6.90131 9.95591 3.99602 6.38136C2.47981 8.99659 3.25462 12.3397 5.76669 14.0214C4.8583 13.9922 3.97006 13.7462 3.17602 13.304C3.17602 13.328 3.17602 13.352 3.17602 13.376C3.17655 16.1002 5.09652 18.4468 7.76669 18.9867C6.92411 19.2159 6.0403 19.2497 5.18269 19.0854C5.93362 21.4151 8.08076 23.0111 10.528 23.0587C8.50113 24.6495 5.99799 25.5122 3.42135 25.508C2.96465 25.5087 2.5083 25.4824 2.05469 25.4294C4.67121 27.1107 7.71651 28.0032 10.8267 28C15.1537 28.0297 19.3121 26.3239 22.3717 23.264C25.4313 20.2042 27.1368 16.0457 27.1067 11.7187C27.1067 11.4707 27.1009 11.224 27.0894 10.9787C28.21 10.1688 29.1771 9.16556 29.9454 8.01603C28.9014 8.47878 27.794 8.78259 26.66 8.91736Z" fill="#FFFFFF"/>
</svg>
